HIERARCHY
ROOT Hips
{
	OFFSET 0.00000 0.00000 0.00000
	CHANNELS 6 Xposition Yposition Zposition Yrotation Zrotation Xrotation 
	JOINT Lumbar
	{
		OFFSET 0 0 0
		CHANNELS 3 Zrotation Xrotation Yrotation
		JOINT Neck
		{
			OFFSET 0.00 0.2701 0.00
			CHANNELS 3 Zrotation Xrotation Yrotation
			End Site
			{
				OFFSET 0.00 0.1379 0.00
			}
		}
		JOINT RightShoulder
		{
			OFFSET 0.0119 0.2289 0.1181
			CHANNELS 3 Zrotation Xrotation Yrotation
			JOINT RightElbow
			{
				OFFSET 0.00 -0.1475 0.00
				CHANNELS 2 Zrotation Yrotation
				JOINT RightWrist
				{
					OFFSET 0.00 -0.1605 0.00
					CHANNELS 2 Zrotation Xrotation
					End Site
					{
						OFFSET 0.0040 -0.1068 0.0006
					}
				}
			}
		}
		JOINT LeftShoulder
		{
			OFFSET 0.0119 0.2289 -0.1181
			CHANNELS 3 Zrotation Xrotation Yrotation
			JOINT LeftElbow
			{
				OFFSET 0.00 -0.1475 0.00
				CHANNELS 2 Zrotation Yrotation
				JOINT LeftWrist
				{
					OFFSET 0.00 -0.1605 0.00
					CHANNELS 2 Zrotation Xrotation
					End Site
					{
						OFFSET 0.0040 -0.1068 -0.0006
					}
				}
			}
		}
	}
	JOINT RightHip
	{
		OFFSET 0.0316 -0.0424 0.0458
		CHANNELS 3 Zrotation Xrotation Yrotation
		JOINT RightKnee
		{
			OFFSET 0.00 -0.2438 0.00
			CHANNELS 1 Zrotation
			JOINT RightAnkle
			{
				OFFSET 0.00 -0.2449 0.00
				CHANNELS 3 Zrotation Xrotation Yrotation
				End Site
				{
					OFFSET 0.1237 -0.0542 0.0051
				}
			}
		}
	}
	JOINT LeftHip
	{
		OFFSET 0.0316 -0.0424 -0.0458
		CHANNELS 3 Zrotation Xrotation Yrotation
		JOINT LeftKnee
		{
			OFFSET 0.00 -0.2438 0.00
			CHANNELS 1 Zrotation
			JOINT LeftAnkle
			{
				OFFSET 0.00 -0.2449 0.00
				CHANNELS 3 Zrotation Xrotation Yrotation
				End Site
				{
					OFFSET 0.1237 -0.0542 -0.0051
				}
			}
		}
	}
}
MOTION
Frames: 25
Frame Time: 0.02
0.0008 0.00019 -0.00025 29.71935 -20.29871 -3.71912 44.60516 -1.32112 -8.02825 -12.55414 3.20047 -0.38024 -19.53464 -4.18146 -9.33101 27.02537 124.30448 15.82373 5.29426 -20.12635 7.21902 -3.34427 29.81952 -107.12945 16.54724 -1.27405 30.23904 -1.55216 1.28125 -20.3525 -7.76955 -5.34056 -3.78114 34.49106 5.20638 7.43804 -24.46618 -6.62035 2.65521 2.01652
0.0006 0.00015 6e-05 29.68836 -20.29212 -3.70626 44.55812 -1.30238 -8.0521 -12.58182 3.1947 -0.38054 -19.49164 -4.24238 -9.15141 26.98445 124.24842 15.80735 5.28534 -20.11789 7.26497 -3.49106 29.87628 -107.15059 16.57159 -1.27402 30.2669 -1.70075 0.42407 -20.36138 -7.69323 -5.30193 -3.73176 34.5304 5.11636 6.9954 -24.4754 -6.63554 2.71848 2.05056
0.0004 0.00011 0.00037 29.65743 -20.28559 -3.69343 44.51118 -1.28368 -8.07587 -12.60929 3.18894 -0.38084 -19.4487 -4.30295 -8.97311 26.94358 124.19468 15.79146 5.27687 -20.10942 7.31052 -3.63651 29.93284 -107.17689 16.59752 -1.27476 30.29476 -1.84898 -0.43098 -20.37025 -7.6171 -5.26336 -3.6825 34.56972 5.02661 6.55406 -24.4846 -6.6507 2.78157 2.0845
0.0002 6e-05 0.00068 29.62653 -20.27902 -3.6806 44.46429 -1.265 -8.09964 -12.63687 3.18319 -0.38113 -19.40582 -4.36362 -8.79432 26.90277 124.13959 15.7753 5.26812 -20.10098 7.35626 -3.78262 29.98941 -107.1992 16.62219 -1.27492 30.32254 -1.99713 -1.28563 -20.3791 -7.541 -5.22484 -3.63326 34.60895 4.93687 6.11278 -24.4938 -6.66584 2.84465 2.11843
-1e-05 2e-05 0.00099 29.59557 -20.27238 -3.66777 44.41731 -1.24629 -8.12351 -12.6647 3.17741 -0.38143 -19.3629 -4.42482 -8.61359 26.86194 124.08014 15.75821 5.25858 -20.09255 7.40256 -3.93061 30.0462 -107.21332 16.64432 -1.27387 30.35027 -2.14561 -2.14214 -20.38797 -7.46474 -5.18628 -3.58392 34.64817 4.84687 5.67022 -24.503 -6.68103 2.90791 2.15246
-0.00021 -2e-05 0.0013 29.5647 -20.2661 -3.65493 44.37046 -1.2276 -8.14708 -12.69143 3.17172 -0.38173 -19.31995 -4.4841 -8.44018 26.82103 124.0377 15.74467 5.25223 -20.08402 7.44657 -4.07087 30.10227 -107.26458 16.67803 -1.27827 30.37842 -2.2933 -2.994 -20.39682 -7.38889 -5.14772 -3.53485 34.68772 4.75764 5.23146 -24.51219 -6.69613 2.97063 2.18621
-0.00041 -6e-05 0.0016 29.53369 -20.25909 -3.64211 44.3234 -1.2089 -8.1712 -12.72036 3.16585 -0.38203 -19.27708 -4.54692 -8.25326 26.78029 123.96435 15.72478 5.24001 -20.07569 7.49497 -4.22593 30.15971 -107.24397 16.68933 -1.27212 30.40569 -2.44243 -3.85447 -20.4057 -7.31228 -5.10917 -3.48528 34.72653 4.66697 4.78556 -24.52141 -6.71137 3.03437 2.22048
-0.00061 -0.0001 0.00191 29.50282 -20.25276 -3.62928 44.27654 -1.19021 -8.19483 -12.74723 3.16014 -0.38232 -19.23417 -4.60694 -8.07692 26.73943 123.91356 15.70931 5.23221 -20.06718 7.53963 -4.36841 30.21593 -107.28431 16.71962 -1.27492 30.43379 -2.59018 -4.70668 -20.41455 -7.23639 -5.07065 -3.43618 34.76604 4.57762 4.3462 -24.5306 -6.72649 3.09717 2.25427
-0.00082 -0.00015 0.00222 29.47207 -20.24724 -3.61641 44.22987 -1.17153 -8.21781 -12.77167 3.15467 -0.38262 -19.19107 -4.66171 -7.92102 26.69827 123.91428 15.70499 5.2338 -20.05842 7.57845 -4.49119 30.2705 -107.42124 16.7801 -1.29188 30.46285 -2.73654 -5.55048 -20.42336 -7.16126 -5.032 -3.38757 34.80638 4.48987 3.91484 -24.53977 -6.74145 3.15886 2.28749
-0.00101 -0.00019 0.00253 29.44046 -20.23698 -3.6037 44.18197 -1.15279 -8.24436 -12.81036 3.14795 -0.38291 -19.14863 -4.74118 -7.67011 26.65838 123.69063 15.65379 5.19338 -20.051 7.64705 -4.71429 30.33408 -107.06893 16.68787 -1.23709 30.4862 -2.89178 -6.44776 -20.4324 -7.0814 -4.99361 -3.33589 34.84187 4.39289 3.43744 -24.5491 -6.7573 3.22704 2.32404
-0.00123 -0.00023 0.00284 29.41077 -20.23676 -3.59067 44.13674 -1.13417 -8.2635 -12.81883 3.14378 -0.38323 -19.1051 -4.77205 -7.60513 26.61609 123.89414 15.69045 5.23389 -20.04081 7.65528 -4.73415 30.37896 -107.70576 16.90423 -1.32739 30.52171 -3.0277 -7.22883 -20.44095 -7.01177 -4.95496 -3.29085 34.88764 4.31539 3.05725 -24.55807 -6.77127 3.28148 2.35355
-0.00152 -0.00029 0.00317 29.38581 -20.26398 -3.57662 44.09824 -1.11584 -8.26114 -12.74488 3.14754 -0.38362 -19.05587 -4.63841 -8.17831 26.5649 125.67343 16.06432 5.56406 -20.0227 7.4756 -4.11986 30.36953 -111.44699 18.0903 -1.87286 30.59002 -3.11509 -7.71631 -20.44822 -6.96828 -4.91329 -3.26276 34.96157 4.29169 2.94562 -24.56626 -6.78 3.2981 2.3637
-0.00185 -0.00035 0.00351 29.36295 -20.30129 -3.56229 44.06253 -1.09765 -8.25158 -12.64046 3.15368 -0.38404 -19.00606 -4.46115 -8.91697 26.51183 127.81521 16.51064 5.96433 -20.00193 7.23915 -3.31462 30.34199 -116.11463 19.56516 -2.55427 30.67062 -3.18228 -8.08257 -20.455 -6.93541 -4.87178 -3.24157 35.04582 4.28752 2.93132 -24.57406 -6.78684 3.30093 2.36678
-0.00216 -0.00041 0.00384 29.33945 -20.33405 -3.54819 44.02596 -1.0794 -8.24608 -12.54973 3.15816 -0.38445 -18.95828 -4.32495 -9.49318 26.46098 129.51689 16.85842 6.28669 -19.98248 7.04355 -2.648 30.32451 -120.09665 20.82544 -3.13522 30.74598 -3.25577 -8.48762 -20.46196 -6.89895 -4.83172 -3.21804 35.12537 4.27415 2.87118 -24.58193 -6.79459 3.31018 2.37312
-0.00247 -0.00047 0.00418 29.31442 -20.36666 -3.53361 43.98771 -1.0611 -8.23717 -12.45981 3.16517 -0.38485 -18.90298 -4.10145 -10.42782 26.40392 132.34742 17.47495 6.79807 -19.96227 6.78539 -1.76641 30.29872 -125.17522 22.43115 -3.87642 30.81995 -3.34129 -8.96065 -20.46906 -6.85731 -4.78527 -3.19116 35.20499 4.26205 2.81773 -24.59026 -6.80213 3.31882 2.3793
-0.00278 -0.00052 0.00451 29.29334 -20.40198 -3.52001 43.95355 -1.04297 -8.23372 -12.36071 3.16736 -0.38528 -18.86325 -4.04637 -10.66797 26.35991 132.95576 17.55942 6.93933 -19.94338 6.64268 -1.28192 30.28665 -128.2175 23.39456 -4.32023 30.89966 -3.39707 -9.2641 -20.47579 -6.82896 -4.75214 -3.1729 35.28689 4.25209 2.77382 -24.59756 -6.80964 3.3254 2.38409
-0.00305 -0.00057 0.00479 29.28031 -20.44231 -3.50901 43.93069 -1.02513 -8.24664 -12.24591 3.15659 -0.38577 -18.86647 -4.49378 -8.83823 26.34795 126.96406 16.06543 5.98082 -19.92578 6.84526 -1.9882 30.3112 -125.16305 22.43688 -3.87308 30.9929 -3.37472 -9.12291 -20.48121 -6.83474 -4.75595 -3.17683 35.37268 4.24195 2.72843 -24.60206 -6.81771 3.33029 2.3872
-0.0033 -0.00061 0.00507 29.27169 -20.48505 -3.49905 43.9117 -1.0075 -8.26536 -12.12245 3.14073 -0.38628 -18.88557 -5.10732 -6.32431 26.35019 118.79167 14.05014 4.65844 -19.91022 7.16382 -3.09212 30.35142 -120.07227 20.83676 -3.1286 31.09138 -3.3233 -8.81647 -20.48636 -6.85351 -4.77313 -3.1892 35.46041 4.23353 2.68987 -24.60556 -6.82579 3.33345 2.38909
-0.00357 -0.00065 0.00535 29.26246 -20.52665 -3.48871 43.89051 -0.98988 -8.28181 -12.00162 3.12658 -0.38679 -18.89727 -5.62713 -4.19732 26.34865 111.86572 12.33401 3.54273 -19.89564 7.42086 -3.98258 30.38795 -116.07668 19.58147 -2.54434 31.18703 -3.28586 -8.58959 -20.4919 -6.86631 -4.78405 -3.19767 35.54711 4.22517 2.65094 -24.60957 -6.83375 3.33701 2.39127
-0.00383 -0.00069 0.00563 29.24705 -20.56869 -3.47793 43.87135 -0.97183 -8.29667 -11.88552 3.11501 -0.38729 -18.90902 -6.22193 -1.75677 26.33512 103.88121 10.35923 2.25617 -19.8727 7.71247 -5.00364 30.40862 -111.40038 18.11438 -1.85941 31.28496 -3.24456 -8.33936 -20.49627 -6.87978 -4.79572 -3.20666 35.63463 4.21389 2.60441 -24.61337 -6.84213 3.34177 2.3943
-0.00409 -0.00073 0.00592 29.246 -20.61036 -3.4684 43.84877 -0.95473 -8.31606 -11.75754 3.09686 -0.3878 -18.92531 -6.70113 0.19725 26.35077 97.57003 8.79641 1.23677 -19.86795 7.96118 -5.85085 30.4672 -107.64167 16.93047 -1.31112 31.37927 -3.20453 -8.10046 -20.50306 -6.8948 -4.80903 -3.21647 35.72095 4.20889 2.57338 -24.61735 -6.84968 3.34374 2.39537
-0.00433 -0.00076 0.00621 29.27946 -20.64914 -3.46122 43.81669 -0.94001 -8.34855 -11.60265 3.06142 -0.38832 -18.94296 -6.81581 0.62418 26.43633 96.48958 8.51627 1.05592 -19.91078 8.0559 -6.10942 30.6185 -106.95716 16.70081 -1.21905 31.46159 -3.17639 -7.93058 -20.51616 -6.91074 -4.82339 -3.22644 35.80168 4.22029 2.58882 -24.62237 -6.85486 3.33887 2.39131
-0.00455 -0.00078 0.00651 29.32801 -20.68748 -3.45542 43.78094 -0.9263 -8.38501 -11.4359 3.01957 -0.38884 -18.96597 -6.8095 0.54162 26.55185 97.15289 8.66528 1.15402 -19.97219 8.10473 -6.18131 30.80863 -107.25889 16.77567 -1.27369 31.53992 -3.15034 -7.77884 -20.5318 -6.92778 -4.83897 -3.23693 35.88121 4.23796 2.61815 -24.62758 -6.85922 3.33125 2.38535
-0.00478 -0.00081 0.00681 29.37223 -20.72699 -3.44958 43.74614 -0.91219 -8.41848 -11.27184 2.98089 -0.38937 -18.9914 -6.86189 0.70394 26.65875 96.96502 8.60568 1.11622 -20.02658 8.18005 -6.34836 30.98688 -107.07033 16.69774 -1.25543 31.62075 -3.12268 -7.62124 -20.54655 -6.94437 -4.85412 -3.24718 35.96269 4.25295 2.63708 -24.63252 -6.86399 3.32464 2.38032
-0.00503 -0.00084 0.00708 29.40572 -20.76313 -3.44134 43.71411 -0.89768 -8.45744 -11.11747 2.94101 -0.38989 -18.99707 -6.90444 0.83417 26.74621 96.94662 8.58442 1.104 -20.07528 8.2371 -6.48992 31.14288 -106.96825 16.65177 -1.25 31.69979 -3.09701 -7.448 -20.56016 -6.96119 -4.8692 -3.25774 36.03916 4.26719 2.67346 -24.63815 -6.86859 3.31889 2.37498
